# Hierarchical Translation and Rotation (.htr) file
# Generated by EVaRT
[Header]
FileType htr
DataType HTRS
FileVersion 1
NumSegments 23
NumFrames 4
DataFrameRate 120
EulerRotationOrder ZYX
CalibrationUnits mm
RotationUnits Degrees
GlobalAxisofGravity Y
BoneLengthAxis Y
ScaleFactor 1
[SegmentNames&Hierarchy]
#CHILD            PARENT
DaveRoot          GLOBAL
Spine1            DaveRoot
Spine2            Spine1
Spine3            Spine2
Spine4            Spine3
Neck              Spine4
Head              Neck
LClavicle         Spine4
LUpperArm         LClavicle
LLowerArm         LUpperArm
LHand             LLowerArm
RClavicle         Spine4
RUpperArm         RClavicle
RLowerArm         RUpperArm
RHand             RLowerArm
RUpperLeg         DaveRoot
RLowerLeg         RUpperLeg
RFoot             RLowerLeg
RToes             RFoot
LUpperLeg         DaveRoot
LLowerLeg         LUpperLeg
LFoot             LLowerLeg
LToes             LFoot
[BasePosition]
#SegmentName      Tx   Ty   Tz   Rx   Ry   Rz   BoneLength
DaveRoot          -2055.569378	951.555595	-349.488296	-55.286396	87.050266	-65.121985	100.000000
Spine1            0.000000	100.000000	0.000000	-15.583766	0.109194	-2.004305	100.000000
Spine2            0.000000	100.000000	0.000000	5.873579	0.737526	-1.849210	100.000000
Spine3            0.000000	100.000000	0.000000	12.197367	0.936767	-1.756723	100.000000
Spine4            0.000000	100.000000	0.000000	13.310112	2.040835	-0.212222	100.000000
Neck              0.000000	100.000000	0.000000	12.619245	0.173111	5.676401	80.000000
Head              0.000000	80.000000	0.000000	-46.107413	-7.464542	12.340102	200.000000
LClavicle         0.000000	100.000000	0.000000	1.044460	-1.911847	-125.483710	200.000000
LUpperArm         0.000000	200.000000	0.000000	43.357802	45.679579	2.001361	300.000000
LLowerArm         0.000000	300.000000	0.000000	0.730208	2.175812	1.895763	200.000000
LHand             0.000000	200.000000	0.000000	7.864047	-1.768569	8.793625	120.000000
RClavicle         0.000000	100.000000	0.000000	-0.545713	-3.840301	119.120382	200.000000
RUpperArm         0.000000	200.000000	0.000000	38.253382	-38.646808	20.273438	300.000000
RLowerArm         0.000000	300.000000	0.000000	3.077531	-3.682026	-7.348670	200.000000
RHand             0.000000	200.000000	0.000000	24.943087	4.220171	-5.193807	120.000000
RUpperLeg         -115.911102	-10.000000	31.058285	22.464267	14.037388	-176.329742	530.000000
RLowerLeg         0.000000	530.000000	0.000000	-23.704548	0.479387	-2.520024	460.000000
RFoot             0.000000	460.000000	0.000000	90.327319	5.730808	-0.531790	130.000000
RToes             0.000000	130.000000	0.000000	18.726053	0.005479	-0.002881	100.000000
LUpperLeg         115.911102	-10.000000	31.058285	16.272232	9.077962	178.396881	530.000000
LLowerLeg         0.000000	530.000000	0.000000	-9.044305	-3.275937	3.046484	460.000000
LFoot             0.000000	460.000000	0.000000	80.193205	-12.160808	23.252942	130.000000
LToes             0.000000	130.000000	0.000000	33.283153	-0.000000	-0.000086	100.000000
#Beginning of Data.
[DaveRoot]
#Fr	Tx	Ty	Tz	Rx	Ry	Rz	SF
1203	347.563563	20.574219	668.097966	9.509854	-28.249873	0.906449	1.000000	
1204	345.461201	20.386966	669.175301	9.349516	-27.784827	0.849473	1.000000	
1205	343.442696	20.213030	670.152717	9.191804	-27.343879	0.800564	1.000000	
1206	341.498490	20.043118	671.010717	9.039280	-26.937794	0.763661	1.000000	
[Spine1]
#Fr	Tx	Ty	Tz	Rx	Ry	Rz	SF
1203	0.000000	0.000000	0.000000	-0.982381	0.096183	6.901416	1.000000	
1204	0.000000	0.000000	0.000000	-1.032364	0.066675	6.971444	1.000000	
1205	0.000000	0.000000	0.000000	-1.082204	0.038188	7.041078	1.000000	
1206	0.000000	0.000000	0.000000	-1.132515	0.014220	7.108315	1.000000	
[Spine2]
#Fr	Tx	Ty	Tz	Rx	Ry	Rz	SF
1203	0.000000	0.000000	0.000000	-0.982381	0.096183	6.901416	1.000000	
1204	0.000000	0.000000	0.000000	-1.032364	0.066675	6.971444	1.000000	
1205	0.000000	0.000000	0.000000	-1.082204	0.038188	7.041078	1.000000	
1206	0.000000	0.000000	0.000000	-1.132515	0.014220	7.108315	1.000000	
[Spine3]
#Fr	Tx	Ty	Tz	Rx	Ry	Rz	SF
1203	0.000000	0.000000	0.000000	-0.982381	0.096183	6.901416	1.000000	
1204	0.000000	0.000000	0.000000	-1.032364	0.066675	6.971444	1.000000	
1205	0.000000	0.000000	0.000000	-1.082204	0.038188	7.041078	1.000000	
1206	0.000000	0.000000	0.000000	-1.132515	0.014220	7.108315	1.000000	
[Spine4]
#Fr	Tx	Ty	Tz	Rx	Ry	Rz	SF
1203	0.000000	0.000000	0.000000	-0.982381	0.096183	6.901416	1.000000	
1204	0.000000	0.000000	0.000000	-1.032364	0.066675	6.971444	1.000000	
1205	0.000000	0.000000	0.000000	-1.082204	0.038188	7.041078	1.000000	
1206	0.000000	0.000000	0.000000	-1.132515	0.014220	7.108315	1.000000	
[Neck]
#Fr	Tx	Ty	Tz	Rx	Ry	Rz	SF
1203	0.000000	0.000000	0.000000	-1.830900	25.402116	-10.861338	1.000000	
1204	0.000000	0.000000	0.000000	-1.786478	25.429298	-10.858391	1.000000	
1205	0.000000	0.000000	0.000000	-1.737473	25.439140	-10.865170	1.000000	
1206	0.000000	0.000000	0.000000	-1.690275	25.439649	-10.883194	1.000000	
[Head]
#Fr	Tx	Ty	Tz	Rx	Ry	Rz	SF
1203	0.000000	0.000000	0.000000	-1.830900	25.402116	-10.861338	1.000000	
1204	0.000000	0.000000	0.000000	-1.786478	25.429298	-10.858391	1.000000	
1205	0.000000	0.000000	0.000000	-1.737473	25.439140	-10.865170	1.000000	
1206	0.000000	0.000000	0.000000	-1.690275	25.439649	-10.883194	1.000000	
[LClavicle]
#Fr	Tx	Ty	Tz	Rx	Ry	Rz	SF
1203	0.000000	0.000000	0.000000	0.167019	0.019951	14.202681	1.000000	
1204	0.000000	0.000000	0.000000	0.335939	0.042559	13.794456	1.000000	
1205	0.000000	0.000000	0.000000	0.558369	0.074517	13.413379	1.000000	
1206	0.000000	0.000000	0.000000	0.841584	0.117895	13.040628	1.000000	
[LUpperArm]
#Fr	Tx	Ty	Tz	Rx	Ry	Rz	SF
1203	0.000000	0.000000	0.000000	18.021878	-9.040651	-29.244592	1.000000	
1204	0.000000	0.000000	0.000000	18.188628	-7.169081	-28.079421	1.000000	
1205	0.000000	0.000000	0.000000	18.351993	-5.413115	-27.085270	1.000000	
1206	0.000000	0.000000	0.000000	18.457845	-3.834143	-26.272062	1.000000	
[LLowerArm]
#Fr	Tx	Ty	Tz	Rx	Ry	Rz	SF
1203	0.000000	0.000000	0.000000	29.070299	-0.000000	-0.000000	1.000000	
1204	0.000000	0.000000	0.000000	26.601551	-0.000000	-0.000000	1.000000	
1205	0.000000	0.000000	0.000000	24.199676	-0.000000	-0.000000	1.000000	
1206	0.000000	0.000000	0.000000	21.944602	-0.000000	-0.000000	1.000000	
[LHand]
#Fr	Tx	Ty	Tz	Rx	Ry	Rz	SF
1203	0.000000	0.000000	0.000000	2.518032	0.000000	0.000000	1.000000	
1204	0.000000	0.000000	0.000000	2.744534	0.000000	0.000000	1.000000	
1205	0.000000	0.000000	0.000000	2.942401	0.000000	0.000000	1.000000	
1206	0.000000	0.000000	0.000000	3.071483	0.000000	0.000000	1.000000	
[RClavicle]
#Fr	Tx	Ty	Tz	Rx	Ry	Rz	SF
1203	0.000000	0.000000	0.000000	2.463227	0.094267	-13.486604	1.000000	
1204	0.000000	0.000000	0.000000	2.457335	0.096181	-13.536381	1.000000	
1205	0.000000	0.000000	0.000000	2.444805	0.100071	-13.638829	1.000000	
1206	0.000000	0.000000	0.000000	2.443832	0.105837	-13.774620	1.000000	
[RUpperArm]
#Fr	Tx	Ty	Tz	Rx	Ry	Rz	SF
1203	0.000000	0.000000	0.000000	-17.447345	22.479658	-4.902968	1.000000	
1204	0.000000	0.000000	0.000000	-17.276520	21.629634	-4.782946	1.000000	
1205	0.000000	0.000000	0.000000	-17.066873	20.908104	-4.635956	1.000000	
1206	0.000000	0.000000	0.000000	-16.862243	20.317438	-4.482616	1.000000	
[RLowerArm]
#Fr	Tx	Ty	Tz	Rx	Ry	Rz	SF
1203	0.000000	0.000000	0.000000	13.166066	-0.000000	-0.000000	1.000000	
1204	0.000000	0.000000	0.000000	12.478301	-0.000000	-0.000000	1.000000	
1205	0.000000	0.000000	0.000000	11.878114	-0.000000	-0.000000	1.000000	
1206	0.000000	0.000000	0.000000	11.386081	-0.000000	-0.000000	1.000000	
[RHand]
#Fr	Tx	Ty	Tz	Rx	Ry	Rz	SF
1203	0.000000	0.000000	0.000000	-22.070623	-7.369028	-1.594767	1.000000	
1204	0.000000	0.000000	0.000000	-22.272946	-6.674036	-1.005591	1.000000	
1205	0.000000	0.000000	0.000000	-22.512743	-6.208089	-0.307751	1.000000	
1206	0.000000	0.000000	0.000000	-22.794005	-5.958229	0.496571	1.000000	
[RUpperLeg]
#Fr	Tx	Ty	Tz	Rx	Ry	Rz	SF
1203	0.000000	0.000000	0.000000	-6.131040	21.217571	5.530617	1.000000	
1204	0.000000	0.000000	0.000000	-6.278574	21.341613	5.542167	1.000000	
1205	0.000000	0.000000	0.000000	-6.400622	21.433742	5.550337	1.000000	
1206	0.000000	0.000000	0.000000	-6.492234	21.486247	5.556869	1.000000	
[RLowerLeg]
#Fr	Tx	Ty	Tz	Rx	Ry	Rz	SF
1203	0.000000	0.000000	0.000000	17.093156	0.000000	0.000000	1.000000	
1204	0.000000	0.000000	0.000000	17.094171	0.000000	0.000000	1.000000	
1205	0.000000	0.000000	0.000000	17.070220	0.000000	0.000000	1.000000	
1206	0.000000	0.000000	0.000000	17.020877	0.000000	0.000000	1.000000	
[RFoot]
#Fr	Tx	Ty	Tz	Rx	Ry	Rz	SF
1203	0.000000	0.000000	0.000000	10.186799	42.332553	15.496673	1.000000	
1204	0.000000	0.000000	0.000000	10.256668	42.401712	15.186212	1.000000	
1205	0.000000	0.000000	0.000000	10.361985	42.487624	14.885205	1.000000	
1206	0.000000	0.000000	0.000000	10.498304	42.594086	14.595271	1.000000	
[RToes]
#Fr	Tx	Ty	Tz	Rx	Ry	Rz	SF
1203	0.000000	0.000000	0.000000	-41.138503	0.000000	0.000000	1.000000	
1204	0.000000	0.000000	0.000000	-41.168863	-0.000000	0.000000	1.000000	
1205	0.000000	0.000000	0.000000	-41.260176	0.000000	0.000000	1.000000	
1206	0.000000	0.000000	0.000000	-41.380294	-0.000000	0.000000	1.000000	
[LUpperLeg]
#Fr	Tx	Ty	Tz	Rx	Ry	Rz	SF
1203	0.000000	0.000000	0.000000	13.707327	-0.626150	24.070914	1.000000	
1204	0.000000	0.000000	0.000000	13.577566	-0.922680	24.014990	1.000000	
1205	0.000000	0.000000	0.000000	13.449735	-1.221090	23.948259	1.000000	
1206	0.000000	0.000000	0.000000	13.320731	-1.510648	23.874653	1.000000	
[LLowerLeg]
#Fr	Tx	Ty	Tz	Rx	Ry	Rz	SF
1203	0.000000	0.000000	0.000000	1.258266	0.000000	-0.000000	1.000000	
1204	0.000000	0.000000	0.000000	1.501553	0.000000	-0.000000	1.000000	
1205	0.000000	0.000000	0.000000	1.730257	0.000000	-0.000000	1.000000	
1206	0.000000	0.000000	0.000000	1.953875	0.000000	-0.000000	1.000000	
[LFoot]
#Fr	Tx	Ty	Tz	Rx	Ry	Rz	SF
1203	0.000000	0.000000	0.000000	-13.213469	-24.160025	8.825630	1.000000	
1204	0.000000	0.000000	0.000000	-13.593640	-24.083103	9.861767	1.000000	
1205	0.000000	0.000000	0.000000	-14.039965	-23.823713	11.009822	1.000000	
1206	0.000000	0.000000	0.000000	-14.549601	-23.418716	12.235510	1.000000	
[LToes]
#Fr	Tx	Ty	Tz	Rx	Ry	Rz	SF
1203	0.000000	0.000000	0.000000	-10.258211	-0.000000	0.000000	1.000000	
1204	0.000000	0.000000	0.000000	-10.387155	-0.000000	0.000000	1.000000	
1205	0.000000	0.000000	0.000000	-10.517232	-0.000000	0.000000	1.000000	
1206	0.000000	0.000000	0.000000	-10.639071	-0.000000	0.000000	1.000000	
